<svg id="Layer_1" data-name="Layer 1" xmlns="http://www.w3.org/2000/svg" viewBox="0 0 452.12 452.63"><defs><style>.cls-1{fill:#008e60;}.cls-2{fill:#008f60;}</style></defs><path class="cls-1" d="M226.23,0C101.48-.14.23,100.88,0,225.72-.24,351.2,101.24,452.88,226.44,452.63,351,452.39,452.12,351,452.12,226.18S350.89.14,226.23,0Zm-.61,419.46C118.78,419.37,32.28,332.72,32.4,225.89S119.27,33,226.37,33.17c107,.18,193.68,87,193.35,193.49C419.4,333.36,332.63,419.54,225.62,419.46Z"/><path class="cls-2" d="M224.91,311.52c-6.83.17-11.4-3.63-15.27-8.67Q170.58,252,131.51,201.14c-6.59-8.58-8.64-17.42.27-25.6,7.35-6.75,17.67-4.51,25.76,5.87,19.84,25.45,39.69,50.92,58.82,76.92,6.74,9.15,10,8.2,16.31-.44,17.77-24.29,36.49-47.88,54.84-71.73,10.94-14.23,20.09-17.76,28.94-11.22,9.35,6.92,8.63,16.05-2.51,30.57q-31.85,41.55-63.75,83.05-6,7.79-12,15.53C234.81,308.42,230.51,311.14,224.91,311.52Z"/></svg>